<svg width="14" height="15" viewBox="0 0 14 15" fill="none" xmlns="http://www.w3.org/2000/svg">
<path d="M2.6 0.899994H11.4C12.1333 0.899994 12.7333 1.49999 12.7333 2.23333V3.69999C12.7333 4.23333 12.4 4.89999 12.0667 5.23333L9.2 7.76666C8.8 8.09999 8.53333 8.76666 8.53333 9.29999V12.1667C8.53333 12.5667 8.26667 13.1 7.93333 13.3L7 13.9C6.13333 14.4333 4.93333 13.8333 4.93333 12.7667V9.23333C4.93333 8.76666 4.66667 8.16666 4.4 7.83333L1.86667 5.16666C1.53333 4.83333 1.26667 4.23333 1.26667 3.83333V2.29999C1.26667 1.49999 1.86667 0.899994 2.6 0.899994Z" stroke="white" stroke-miterlimit="10" stroke-linecap="round" stroke-linejoin="round"/>
</svg>
