<svg width="36" height="29" viewBox="0 0 36 29" fill="none" xmlns="http://www.w3.org/2000/svg">
<rect width="36" height="29" rx="4" fill="#FEF5F6"/>
<path d="M22.5 11.49C20.835 11.325 19.16 11.24 17.49 11.24C16.5 11.24 15.51 11.29 14.52 11.39L13.5 11.49" stroke="#F02D3A" stroke-linecap="round" stroke-linejoin="round"/>
<path opacity="0.34" d="M16.25 10.985L16.36 10.33C16.44 9.855 16.5 9.5 17.345 9.5H18.655C19.5 9.5 19.565 9.875 19.64 10.335L19.75 10.985" stroke="#F02D3A" stroke-linecap="round" stroke-linejoin="round"/>
<path d="M21.425 13.07L21.1 18.105C21.045 18.89 21 19.5 19.605 19.5H16.395C15 19.5 14.955 18.89 14.9 18.105L14.575 13.07" stroke="#F02D3A" stroke-linecap="round" stroke-linejoin="round"/>
<path opacity="0.34" d="M17.165 16.75H18.83" stroke="#F02D3A" stroke-linecap="round" stroke-linejoin="round"/>
<path opacity="0.34" d="M16.75 14.75H19.25" stroke="#F02D3A" stroke-linecap="round" stroke-linejoin="round"/>
</svg>
