<svg width="18" height="17" viewBox="0 0 18 17" fill="none" xmlns="http://www.w3.org/2000/svg">
<rect width="18" height="17" rx="8.5" fill="url(#paint0_linear_1_214)"/>
<path d="M9.9782 12C9.8382 12 9.72154 11.9533 9.6282 11.86C9.53487 11.76 9.4882 11.6367 9.4882 11.49V6.4L9.6682 6.46L7.5082 9.22L7.4582 9.09H11.0982C11.2315 9.09 11.3415 9.13667 11.4282 9.23C11.5215 9.31667 11.5682 9.42667 11.5682 9.56C11.5682 9.68667 11.5215 9.79333 11.4282 9.88C11.3415 9.96667 11.2315 10.01 11.0982 10.01H6.7682C6.6482 10.01 6.53487 9.96333 6.4282 9.87C6.32154 9.77 6.2682 9.65333 6.2682 9.52C6.2682 9.39333 6.31154 9.28 6.3982 9.18L9.5782 5.2C9.62487 5.13333 9.68487 5.08333 9.7582 5.05C9.83154 5.01667 9.9082 5 9.9882 5C10.1349 5 10.2549 5.05 10.3482 5.15C10.4415 5.24333 10.4882 5.36333 10.4882 5.51V11.49C10.4882 11.6367 10.4382 11.76 10.3382 11.86C10.2382 11.9533 10.1182 12 9.9782 12Z" fill="white"/>
<defs>
<linearGradient id="paint0_linear_1_214" x1="0" y1="0" x2="16.9723" y2="17.9706" gradientUnits="userSpaceOnUse">
<stop stop-color="#EEA849"/>
<stop offset="1" stop-color="#F46B45"/>
</linearGradient>
</defs>
</svg>
